<?xml version="1.0" encoding="UTF-8" standalone="no"?>
<svg
   id="Layer_1"
   version="1.1"
   viewBox="0 0 600 250"
   sodipodi:docname="SVtorm_metro_dark.svg"
   inkscape:version="1.4 (e7c3feb1, 2024-10-09)"
   xmlns:inkscape="http://www.inkscape.org/namespaces/inkscape"
   xmlns:sodipodi="http://sodipodi.sourceforge.net/DTD/sodipodi-0.dtd"
   xmlns="http://www.w3.org/2000/svg"
   xmlns:svg="http://www.w3.org/2000/svg">
  <!-- Generator: Adobe Illustrator 29.2.1, SVG Export Plug-In . SVG Version: 2.1.0 Build 116)  -->
  <defs
     id="defs23">
    <style
       id="style1">
      .st0 {
        fill: #89f6f0;
      }

      .st0, .st1, .st2, .st3, .st4, .st5, .st6, .st7, .st8, .st9, .st10 {
        isolation: isolate;
      }

      .st0, .st2, .st3, .st4, .st5, .st8, .st10 {
        font-family: MavenPro-Bold, 'Maven Pro';
        font-weight: 700;
      }

      .st0, .st3, .st4, .st5, .st8, .st10 {
        font-size: 50px;
      }

      .st1 {
        font-family: MavenPro-Regular, 'Maven Pro';
      }

      .st1, .st2, .st7, .st9 {
        font-size: 12px;
      }

      .st11 {
        fill: url(#linear-gradient1);
      }

      .st12 {
        fill: url(#linear-gradient3);
      }

      .st13 {
        fill: gray;
      }

      .st3 {
        fill: #367d7f;
      }

      .st4 {
        fill: #429698;
      }

      .st5 {
        fill: #a5f3df;
      }

      .st14, .st15, .st16 {
        stroke: #000;
      }

      .st14, .st17, .st7 {
        fill: #fff;
      }

      .st18 {
        stroke: url(#linear-gradient2);
      }

      .st18, .st19, .st20, .st21, .st22, .st23, .st24 {
        fill: none;
      }

      .st18, .st19, .st20, .st21, .st17, .st24 {
        stroke-miterlimit: 10;
      }

      .st18, .st19, .st20, .st21, .st24 {
        stroke-width: 6px;
      }

      .st19 {
        stroke: url(#linear-gradient5);
      }

      .st20 {
        stroke: url(#linear-gradient4);
      }

      .st21 {
        stroke: url(#linear-gradient6);
      }

      .st22 {
        stroke: #c364a6;
      }

      .st15 {
        fill: #39383a;
      }

      .st17 {
        stroke: #1e1c1c;
      }

      .st7 {
        font-family: Helvetica, Helvetica;
      }

      .st8 {
        fill: #b3f0d6;
      }

      .st16 {
        fill: #1e1c1c;
      }

      .st23 {
        stroke: #c563a5;
      }

      .st9 {
        font-family: MavenPro-SemiBold, 'Maven Pro';
        font-weight: 600;
      }

      .st10 {
        fill: #63d4d6;
      }

      .st24 {
        stroke: url(#linear-gradient);
      }
    </style>
    <linearGradient
       id="linear-gradient"
       x1="466.09"
       y1="152.83"
       x2="510.39"
       y2="152.83"
       gradientTransform="translate(0 251.28) scale(1 -1)"
       gradientUnits="userSpaceOnUse">
      <stop
         offset="0"
         stop-color="#a5f3df"
         id="stop1" />
      <stop
         offset=".5"
         stop-color="#b3f0d6"
         id="stop2" />
      <stop
         offset="1"
         stop-color="#daf8eb"
         id="stop3" />
    </linearGradient>
    <linearGradient
       id="linear-gradient1"
       x1="1451.61"
       y1="-683.55"
       x2="1451.61"
       y2="-428.84"
       gradientTransform="translate(-214.16 1550.5) rotate(-90) scale(1 -1)"
       gradientUnits="userSpaceOnUse">
      <stop
         offset="0"
         stop-color="#a5f3df"
         id="stop4" />
      <stop
         offset=".22"
         stop-color="#97f4e8"
         id="stop5" />
      <stop
         offset=".43"
         stop-color="#89f6f0"
         id="stop6" />
      <stop
         offset=".61"
         stop-color="#7cf9f7"
         id="stop7" />
      <stop
         offset=".79"
         stop-color="#63d4d6"
         id="stop8" />
      <stop
         offset="1"
         stop-color="#51b1b4"
         id="stop9" />
    </linearGradient>
    <linearGradient
       id="linear-gradient2"
       x1="188.9"
       y1="832.73"
       x2="277.26"
       y2="832.73"
       gradientTransform="translate(403.55 930.78) rotate(-180)"
       gradientUnits="userSpaceOnUse">
      <stop
         offset="0"
         stop-color="#51b1b4"
         id="stop10" />
      <stop
         offset=".5"
         stop-color="#429698"
         id="stop11" />
      <stop
         offset="1"
         stop-color="#3a8486"
         id="stop12" />
    </linearGradient>
    <linearGradient
       id="linear-gradient3"
       x1="1451.61"
       y1="-342.88"
       x2="1451.61"
       y2="-308"
       gradientTransform="matrix(0,-1,-1,0,-216.17,1550.5)"
       gradientUnits="userSpaceOnUse">
      <stop
         offset="0"
         stop-color="#3a8486"
         id="stop13" />
      <stop
         offset="1"
         stop-color="#367d7f"
         id="stop14" />
    </linearGradient>
    <linearGradient
       id="linear-gradient4"
       x1="188.9"
       y1="873.94"
       x2="277.26"
       y2="873.94"
       gradientTransform="translate(403.55 930.78) rotate(-180)"
       gradientUnits="userSpaceOnUse">
      <stop
         offset="0"
         stop-color="#51b1b4"
         id="stop15" />
      <stop
         offset=".5"
         stop-color="#429698"
         id="stop16" />
      <stop
         offset="1"
         stop-color="#3a8486"
         id="stop17" />
    </linearGradient>
    <linearGradient
       id="linear-gradient5"
       x1="188.9"
       y1="792.23"
       x2="277.26"
       y2="792.23"
       gradientTransform="translate(403.55 930.78) rotate(-180)"
       gradientUnits="userSpaceOnUse">
      <stop
         offset="0"
         stop-color="#51b1b4"
         id="stop18" />
      <stop
         offset=".5"
         stop-color="#429698"
         id="stop19" />
      <stop
         offset="1"
         stop-color="#3a8486"
         id="stop20" />
    </linearGradient>
    <linearGradient
       id="linear-gradient6"
       x1="188.9"
       y1="1329.73"
       x2="277.26"
       y2="1329.73"
       gradientTransform="translate(403.55 -1188.18) rotate(-180) scale(1 -1)"
       gradientUnits="userSpaceOnUse">
      <stop
         offset="0"
         stop-color="#51b1b4"
         id="stop21" />
      <stop
         offset=".5"
         stop-color="#429698"
         id="stop22" />
      <stop
         offset="1"
         stop-color="#3a8486"
         id="stop23" />
    </linearGradient>
  </defs>
  <sodipodi:namedview
     id="namedview56"
     bordercolor="#cccccc"
     borderopacity="1"
     inkscape:current-layer="Layer_1"
     inkscape:cx="290.23747"
     inkscape:cy="126.64908"
     inkscape:deskcolor="#d1d1d1"
     inkscape:pagecheckerboard="0"
     inkscape:pageopacity="1"
     inkscape:showpageshadow="0"
     inkscape:window-height="1283"
     inkscape:window-maximized="0"
     inkscape:window-width="3184"
     inkscape:window-x="1196"
     inkscape:window-y="25"
     inkscape:zoom="3.79"
     pagecolor="#ffffff" />
  <g
     id="g2"
     class="st6">
    <g
       id="text1"
       class="st6">
      <g
         class="st6"
         id="g24">
        <text
           class="st3"
           transform="translate(44.66 237.38)"
           id="text23"><tspan
             x="0"
             y="0"
             id="tspan23">S</tspan></text>
        <text
           class="st4"
           transform="translate(73.51 237.38)"
           id="text24"><tspan
             x="0"
             y="0"
             id="tspan24">V</tspan></text>
      </g>
    </g>
    <g
       id="text2"
       class="st6">
      <g
         class="st6"
         id="g28">
        <text
           class="st10"
           transform="translate(108.96 237.38)"
           id="text25"><tspan
             x="0"
             y="0"
             id="tspan25">t</tspan></text>
        <text
           class="st0"
           transform="translate(129.61 237.38)"
           id="text26"><tspan
             x="0"
             y="0"
             id="tspan26">o</tspan></text>
        <text
           class="st5"
           transform="translate(159.11 237.38)"
           id="text27"><tspan
             x="0"
             y="0"
             id="tspan27">r</tspan></text>
        <text
           class="st8"
           transform="translate(180.51 237.38)"
           id="text28"><tspan
             x="0"
             y="0"
             id="tspan28">m</tspan></text>
      </g>
    </g>
  </g>
  <path
     id="path56-9"
     class="st22"
     d="M247.69,98.67l-35.44.11c-.28,0-.5.22-.5.5v61.31c0,.28-.21.5-.49.5l-81.46-.05c-.27,0-.5-.22-.5-.5l-.1-61.41c0-.27-.22-.5-.5-.5l-76.46-.24"
     inkscape:label="path57"
     sodipodi:nodetypes="ccccc" />
  <path
     id="path56-91"
     class="st22"
     d="M247.69,99.01l-35.44.03c-.28,0-.5.07-.5.16v19.8c0,.09-.21.16-.49.16l-81.46-.02c-.27,0-.5-.07-.5-.16l-.1-19.83c0-.09-.22-.16-.5-.16l-76.46-.08"
     inkscape:label="path57"
     sodipodi:nodetypes="ccccc" />
  <path
     id="path56-92"
     class="st22"
     d="M247.69,99.05l-35.44-.03c-.28,0-.5-.07-.5-.16v-19.8c0-.09-.21-.16-.49-.16l-81.46.02c-.27,0-.5.07-.5.16l-.1,19.83c0,.09-.22.16-.5.16l-76.46.08"
     inkscape:label="path57"
     sodipodi:nodetypes="ccccc" />
  <path
     id="path56-93"
     class="st22"
     d="M247.69,98.87l-35.44-.11c-.28,0-.5-.22-.5-.5v-61.31c0-.28-.21-.5-.49-.5l-81.46.05c-.27,0-.5.22-.5.5l-.1,61.41c0,.27-.22.5-.5.5l-76.46.24"
     inkscape:label="path57"
     sodipodi:nodetypes="ccccc" />
  <path
     id="path20"
     class="st23"
     d="M252.49,98.65h216v20.6l59.6.2"
     sodipodi:nodetypes="cccc" />
  <path
     id="path19"
     class="st23"
     d="M252.69,99.05h215.6l.2-21.5,56.2-.2"
     sodipodi:nodetypes="cccc" />
  <g
     id="text155"
     class="st6"
     style="stroke:none;fill:#e6e6e6">
    <g
       id="text242"
       class="st6"
       style="stroke:none;fill:#e6e6e6">
      <g
         class="st6"
         id="g29"
         style="stroke:none;fill:#e6e6e6">
        <text
           class="st9"
           transform="translate(270.36 131.25)"
           id="text29"
           style="stroke:none;fill:#e6e6e6"><tspan
             x="0"
             y="0"
             id="tspan29"
             style="stroke:none;fill:#e6e6e6">Survivor</tspan></text>
      </g>
    </g>
    <g
       id="text243"
       class="st6"
       style="stroke:none;fill:#e6e6e6">
      <g
         class="st6"
         id="g30"
         style="stroke:none;fill:#e6e6e6">
        <text
           class="st1"
           transform="translate(277.76 145.65)"
           id="text30"
           style="stroke:none;fill:#e6e6e6"><tspan
             x="0"
             y="0"
             id="tspan30"
             style="stroke:none;fill:#e6e6e6">Merge</tspan></text>
      </g>
    </g>
  </g>
  <g
     id="text173"
     class="st6"
     style="stroke:none;fill:#e6e6e6">
    <g
       id="text247"
       class="st6"
       style="stroke:none;fill:#e6e6e6">
      <g
         class="st6"
         id="g31"
         style="stroke:none;fill:#e6e6e6">
        <text
           class="st9"
           transform="translate(156.67 20.59)"
           id="text31"
           style="stroke:none;fill:#e6e6e6"><tspan
             x="0"
             y="0"
             id="tspan31"
             style="stroke:none;fill:#e6e6e6">Delly</tspan></text>
      </g>
    </g>
  </g>
  <g
     id="text174"
     class="st6"
     style="stroke:none;fill:#e6e6e6">
    <g
       id="text248"
       class="st6"
       style="stroke:none;fill:#e6e6e6">
      <g
         class="st6"
         id="g32"
         style="stroke:none;fill:#e6e6e6">
        <text
           class="st9"
           transform="translate(153.26 62.29)"
           id="text32"
           style="stroke:none;fill:#e6e6e6"><tspan
             x="0"
             y="0"
             id="tspan32"
             style="stroke:none;fill:#e6e6e6">Gridss</tspan></text>
      </g>
    </g>
  </g>
  <g
     id="text175"
     class="st6"
     style="stroke:none;fill:#e6e6e6">
    <g
       id="text249"
       class="st6"
       style="stroke:none;fill:#e6e6e6">
      <g
         class="st6"
         id="g33"
         style="stroke:none;fill:#e6e6e6">
        <text
           class="st9"
           transform="translate(153.59 186.83)"
           id="text33"
           style="stroke:none;fill:#e6e6e6"><tspan
             x="0"
             y="0"
             id="tspan33"
             style="stroke:none;fill:#e6e6e6">Svaba</tspan></text>
      </g>
    </g>
  </g>
  <g
     id="text176"
     class="st6"
     style="stroke:none;fill:#e6e6e6">
    <g
       id="text250"
       class="st6"
       style="stroke:none;fill:#e6e6e6">
      <g
         class="st6"
         id="g34"
         style="stroke:none;fill:#e6e6e6">
        <text
           class="st9"
           transform="translate(153.12 145.46)"
           id="text34"
           style="stroke:none;fill:#e6e6e6"><tspan
             x="0"
             y="0"
             id="tspan34"
             style="stroke:none;fill:#e6e6e6">Manta</tspan></text>
      </g>
    </g>
  </g>
  <g
     id="text180"
     class="st6"
     style="stroke:none;fill:#e6e6e6">
    <g
       id="text251"
       class="st6"
       style="stroke:none;fill:#e6e6e6">
      <g
         class="st6"
         id="g35"
         style="stroke:none;fill:#e6e6e6">
        <text
           class="st9"
           transform="translate(324.27 64.39)"
           id="text35"
           style="stroke:none;fill:#e6e6e6"><tspan
             x="0"
             y="0"
             id="tspan35"
             style="stroke:none;fill:#e6e6e6">ReCall</tspan></text>
      </g>
    </g>
    <g
       id="text252"
       class="st6"
       style="stroke:none;fill:#e6e6e6">
      <g
         class="st6"
         id="g36"
         style="stroke:none;fill:#e6e6e6">
        <text
           class="st1"
           transform="translate(325.37 78.79)"
           id="text36"
           style="stroke:none;fill:#e6e6e6"><tspan
             x="0"
             y="0"
             id="tspan36"
             style="stroke:none;fill:#e6e6e6">Gridss</tspan></text>
      </g>
    </g>
  </g>
  <g
     id="text184"
     class="st6"
     style="stroke:none;fill:#e6e6e6">
    <g
       id="text253"
       class="st6"
       style="stroke:none;fill:#e6e6e6">
      <g
         class="st6"
         id="g37"
         style="stroke:none;fill:#e6e6e6">
        <text
           class="st9"
           transform="translate(361.49 131.25)"
           id="text37"
           style="stroke:none;fill:#e6e6e6"><tspan
             x="0"
             y="0"
             id="tspan37"
             style="stroke:none;fill:#e6e6e6">Survivor</tspan></text>
      </g>
    </g>
    <g
       id="text254"
       class="st6"
       style="stroke:none;fill:#e6e6e6">
      <g
         class="st6"
         id="g38"
         style="stroke:none;fill:#e6e6e6">
        <text
           class="st1"
           transform="translate(363.79 145.65)"
           id="text38"
           style="stroke:none;fill:#e6e6e6"><tspan
             x="0"
             y="0"
             id="tspan38"
             style="stroke:none;fill:#e6e6e6">Filtering</tspan></text>
      </g>
    </g>
  </g>
  <g
     id="text185"
     class="st6"
     style="stroke:none;fill:#e6e6e6">
    <g
       id="text255"
       class="st6"
       style="stroke:none;fill:#e6e6e6">
      <g
         class="st6"
         id="g39"
         style="stroke:none;fill:#e6e6e6">
        <text
           class="st2"
           transform="translate(444.23 148.85)"
           id="text39"
           style="stroke:none;fill:#e6e6e6"><tspan
             x="0"
             y="0"
             id="tspan39"
             style="stroke:none;fill:#e6e6e6">DrawSVs</tspan></text>
      </g>
    </g>
  </g>
  <g
     id="g257"
     class="st6"
     style="stroke:none;fill:#e6e6e6">
    <g
       id="text256"
       class="st6"
       style="stroke:none;fill:#e6e6e6">
      <g
         class="st6"
         id="g40"
         style="stroke:none;fill:#e6e6e6">
        <text
           class="st9"
           transform="translate(223.47 64.39)"
           id="text40"
           style="stroke:none;fill:#e6e6e6"><tspan
             x="0"
             y="0"
             id="tspan40"
             style="stroke:none;fill:#e6e6e6">Standarize</tspan></text>
      </g>
    </g>
    <g
       id="text257"
       class="st6"
       style="stroke:none;fill:#e6e6e6">
      <g
         class="st6"
         id="g41"
         style="stroke:none;fill:#e6e6e6">
        <text
           class="st1"
           transform="translate(241.07 78.79)"
           id="text41"
           style="stroke:none;fill:#e6e6e6"><tspan
             x="0"
             y="0"
             id="tspan41"
             style="stroke:none;fill:#e6e6e6">Calls</tspan></text>
      </g>
    </g>
  </g>
  <g
     id="g259"
     class="st6"
     style="stroke:none;fill:#e6e6e6">
    <g
       id="text258"
       class="st6"
       style="stroke:none;fill:#e6e6e6">
      <g
         class="st6"
         id="g42"
         style="stroke:none;fill:#e6e6e6">
        <text
           class="st9"
           transform="translate(394.41 72.81)"
           id="text42"
           style="stroke:none;fill:#e6e6e6"><tspan
             x="0"
             y="0"
             id="tspan42"
             style="stroke:none;fill:#e6e6e6">iAnnotateSV</tspan></text>
      </g>
    </g>
  </g>
  <path
     id="path144"
     class="st24"
     d="M510.39,119.5h-40.5c-.4,0-.8-.3-.8-.8v-40.5c0-.4.3-.8.8-.8h40.5" />
  <rect
     id="rect4-5"
     class="st11"
     x="214.68"
     y="95.89"
     width="254.71"
     height="6" />
  <path
     id="path186-6"
     class="st18"
     d="M129.25,120.2v-40.5c0-.4.7-.8,1.5-.8h79.5c.8,0,1.5.3,1.5.8v40.5"
     inkscape:label="path186-6" />
  <rect
     id="rect4-51"
     class="st12"
     x="91.830002"
     y="95.889999"
     width="34.880001"
     height="6"
     style="fill:url(#linear-gradient3)" />
  <path
     id="path186-61"
     class="st20"
     d="M129.25,78.99v-40.5c0-.4.7-.8,1.5-.8h79.5c.8,0,1.5.3,1.5.8v40.5"
     inkscape:label="path186-6" />
  <path
     id="path186-62"
     class="st19"
     d="M129.25,160.7v-40.5c0-.4.7-.8,1.5-.8h79.5c.8,0,1.5.3,1.5.8v40.5"
     inkscape:label="path186-6" />
  <path
     id="path186-63"
     class="st21"
     d="M129.25,119.4v40.5c0,.4.7.8,1.5.8h79.5c.8,0,1.5-.3,1.5-.8v-40.5"
     inkscape:label="path186-6" />
  <path
     class="st13"
     d="M234.59,226.6l-.99.08-3.06,10.69c.34-.02.8.13.96-.23l3.1-10.53h-.01Z"
     id="path45"
     style="fill:#b3b3b3" />
  <path
     class="st13"
     d="M274.44,226.6c-.38.03-.91-.16-1.1.23l-3.1,10.53.99-.08,3.2-10.68h.01Z"
     id="path46"
     style="fill:#b3b3b3" />
  <path
     class="st13"
     d="M243.26,229.95v4.4c0,1.01,2.02,1.69,2.85,1.2l.09-.85c-.41.2-1.68-.22-1.68-.63v-4.12h1.68v-.98h-1.68l-.08-1.26h-1.18v1.26h-.84v.98h.84,0Z"
     id="path47"
     style="fill:#b3b3b3" />
  <path
     class="st13"
     d="M240.59,228.98c-1.45-.36-4.03-.33-3.91,1.74s3.14,1.85,3.16,3.08c.03,1.41-2.41.89-3.16.35-.23,1.29.35,1.42,1.48,1.52,1.32.12,2.95-.42,2.94-1.99-.02-2.1-3.04-2.03-3.17-2.97-.18-1.35,1.87-.94,2.66-.62v-1.11h0Z"
     id="path48"
     style="fill:#b3b3b3" />
  <path
     class="st13"
     d="M251.32,229.72c-1.06-1.15-2.89-1.11-4.22-.47-.12.32-.16.76.14.98,2.46-1.34,4.24.79,3.35,3.22-.59,1.62-2.06,1.34-3.42.98v1.12c1.33.13,2.52.36,3.73-.39,1.68-1.05,1.67-4.07.41-5.43h0Z"
     id="path49"
     style="fill:#b3b3b3" />
  <path
     class="st13"
     d="M258.78,228.97v6.57h1.26v-4.4c0-.32,1.29-1.22,1.67-1.27.35-.05.98.21.98.57v5.1h1.26v-4.26c0-.45,1.35-1.34,1.81-1.41.38-.06.98.42.98.71v4.96h1.26v-5.24c0-.17-.35-.88-.5-1.04-.87-.9-3.05-.42-3.42.83-.34-.16-.35-.58-.62-.84-.93-.88-2.76-.37-3.36.7l-.07-.98h-1.26,0Z"
     id="path50"
     style="fill:#b3b3b3" />
  <polygon
     class="st13"
     points="256.54 228.97 253.88 228.97 255.21 231.63 256.54 228.97"
     id="polygon50"
     style="fill:#b3b3b3" />
  <polygon
     class="st13"
     points="256.54 235.55 255.21 232.89 253.88 235.55 256.54 235.55"
     id="polygon51"
     style="fill:#b3b3b3" />
  <path
     class="st13"
     d="M258.78,228.97h1.26l.07.98c.6-1.07,2.43-1.59,3.36-.7.27.26.28.68.62.84.36-1.25,2.54-1.72,3.42-.83.15.16.5.86.5,1.04v5.24h-1.26v-4.96c0-.29-.6-.77-.98-.71-.46.07-1.81.96-1.81,1.41v4.26h-1.26v-5.1c0-.36-.63-.62-.98-.57-.38.05-1.67.95-1.67,1.27v4.4h-1.26v-6.57h0Z"
     id="path51"
     style="fill:#b3b3b3" />
  <path
     class="st13"
     d="M240.59,228.98v1.11c-.78-.32-2.84-.73-2.65.62.13.94,3.15.87,3.17,2.97.02,1.57-1.62,2.1-2.94,1.99-1.13-.1-1.71-.23-1.48-1.52.74.54,3.19,1.06,3.16-.35-.03-1.23-3.04-1.03-3.16-3.08s2.46-2.09,3.91-1.74h-.01Z"
     id="path52"
     style="fill:#b3b3b3" />
  <path
     class="st13"
     d="M251.6,229.72c1.26,1.36,1.26,4.39-.41,5.43-1.21.76-2.4.52-3.73.39v-1.12c1.36.36,2.83.64,3.42-.98.89-2.43-.9-4.55-3.35-3.22-.3-.22-.26-.66-.14-.98,1.33-.63,3.16-.68,4.22.47h0Z"
     id="path53"
     style="fill:#b3b3b3" />
  <path
     class="st13"
     d="M243.26,229.95h-.84v-.98h.84v-1.26h1.18l.08,1.26h1.68v.98h-1.68v4.12c0,.41,1.27.83,1.68.63l-.09.85c-.83.49-2.85-.19-2.85-1.2v-4.4h0Z"
     id="path54"
     style="fill:#b3b3b3" />
  <path
     class="st13"
     d="M274.44,226.6l-3.2,10.68-.99.08,3.1-10.53c.19-.39.72-.2,1.1-.23h-.01Z"
     id="path55"
     style="fill:#b3b3b3" />
  <path
     class="st13"
     d="M234.59,226.6l-3.1,10.53c-.16.36-.62.22-.96.23l3.06-10.69.99-.08h.01Z"
     id="path56"
     style="fill:#b3b3b3" />
  <polygon
     class="st13"
     points="256.54 228.97 255.21 231.63 253.88 228.97 256.54 228.97"
     id="polygon56"
     style="fill:#b3b3b3" />
  <polygon
     class="st13"
     points="256.54 235.55 253.88 235.55 255.21 232.89 256.54 235.55"
     id="polygon57"
     style="fill:#b3b3b3" />
  <circle
     id="circle56-93"
     cx="0.0099999998"
     cy="-0.63"
     r="3.0999999"
     style="fill:#cccccc">
    <animateMotion
       accumulate="none"
       additive="replace"
       begin="0s"
       calcMode="paced"
       dur="3s"
       fill="remove"
       keyPoints="1;0"
       keyTimes="0;1"
       repeatCount="indefinite"
       restart="always">
      <mpath
         href="#path56-93" />
    </animateMotion>
  </circle>
  <circle
     id="circle56-92"
     cx="0.0099999998"
     cy="-0.63"
     r="3.0999999"
     style="fill:#cccccc">
    <animateMotion
       accumulate="none"
       additive="replace"
       begin="0s"
       calcMode="paced"
       dur="3s"
       fill="remove"
       keyPoints="1;0"
       keyTimes="0;1"
       repeatCount="indefinite"
       restart="always">
      <mpath
         href="#path56-92" />
    </animateMotion>
  </circle>
  <circle
     id="circle56-91"
     cx="0.0099999998"
     cy="-0.63"
     r="3.0999999"
     style="fill:#cccccc">
    <animateMotion
       accumulate="none"
       additive="replace"
       begin="0s"
       calcMode="paced"
       dur="3s"
       fill="remove"
       keyPoints="1;0"
       keyTimes="0;1"
       repeatCount="indefinite"
       restart="always">
      <mpath
         href="#path56-91" />
    </animateMotion>
  </circle>
  <circle
     id="circle56-9"
     cx="0.0099999998"
     cy="-0.63"
     r="3.0999999"
     style="fill:#cccccc">
    <animateMotion
       accumulate="none"
       additive="replace"
       begin="0s"
       calcMode="paced"
       dur="3s"
       fill="remove"
       keyPoints="1;0"
       keyTimes="0;1"
       repeatCount="indefinite"
       restart="always">
      <mpath
         href="#path56-9" />
    </animateMotion>
  </circle>
  <circle
     id="circle19"
     cx="0.0099999998"
     cy="-0.63"
     r="3.0999999"
     style="fill:#cccccc">
    <animateMotion
       accumulate="none"
       additive="replace"
       begin="3s"
       calcMode="paced"
       dur="3s"
       fill="remove"
       keyPoints="0;1"
       keyTimes="0;1"
       repeatCount="indefinite"
       restart="always">
      <mpath
         href="#path19" />
    </animateMotion>
  </circle>
  <circle
     id="circle20"
     cx="0.0099999998"
     cy="-0.63"
     r="3.0999999"
     style="fill:#cccccc">
    <animateMotion
       accumulate="none"
       additive="replace"
       begin="3s"
       calcMode="paced"
       dur="3s"
       fill="remove"
       keyPoints="0;1"
       keyTimes="0;1"
       repeatCount="indefinite"
       restart="always">
      <mpath
         href="#path20" />
    </animateMotion>
  </circle>
  <path
     id="rect186"
     class="st17"
     d="M170.5,86.4h0c4.1,0,7.5-3.4,7.5-7.5h0c0-4.1-3.4-7.5-7.5-7.5h0c-4.1,0-7.5,3.4-7.5,7.5h0c0,4.1,3.4,7.5,7.5,7.5Z" />
  <path
     id="rect193"
     class="st17"
     d="M253.63,106.6h0c4.1,0,7.5-3.4,7.5-7.5h0c0-4.1-3.4-7.5-7.5-7.5h0c-4.1,0-7.5,3.4-7.5,7.5h0c0,4.1,3.4,7.5,7.5,7.5Z" />
  <path
     id="rect155"
     class="st17"
     d="M297.69,106.6h0c4.1,0,7.5-3.4,7.5-7.5h0c0-4.1-3.4-7.5-7.5-7.5h0c-4.1,0-7.5,3.4-7.5,7.5h0c0,4.1,3.4,7.5,7.5,7.5Z" />
  <path
     id="rect151"
     class="st17"
     d="M341.75,106.6h0c4.1,0,7.5-3.4,7.5-7.5h0c0-4.1-3.4-7.5-7.5-7.5h0c-4.1,0-7.5,3.4-7.5,7.5h0c0,4.1,3.4,7.5,7.5,7.5h0Z" />
  <path
     id="rect152"
     class="st17"
     d="M385.81,106.6h0c4.1,0,7.5-3.4,7.5-7.5h0c0-4.1-3.4-7.5-7.5-7.5h0c-4.1,0-7.5,3.4-7.5,7.5h0c0,4.1,3.4,7.5,7.5,7.5Z" />
  <path
     id="rect196"
     class="st17"
     d="M429.87,105.9h0c4.1,0,7.5-3.4,7.5-7.5h0c0-4.1-3.4-7.5-7.5-7.5h0c-4.1,0-7.5,3.4-7.5,7.5h0c0,4.1,3.4,7.5,7.5,7.5Z" />
  <path
     id="rect188"
     class="st17"
     d="M469.39,127h0c4.1,0,7.5-3.4,7.5-7.5h0c0-4.1-3.4-7.5-7.5-7.5h0c-4.1,0-7.5,3.4-7.5,7.5h0c0,4.1,3.4,7.5,7.5,7.5Z" />
  <g
     id="g171">
    <g
       id="g170">
      <rect
         id="rect167"
         class="st14"
         x="50.31"
         y="73.8"
         width="38.1"
         height="47.6" />
      <rect
         id="rect168"
         class="st15"
         x="47.91"
         y="92.9"
         width="42.9"
         height="19" />
      <rect
         id="rect169"
         class="st14"
         x="52.61"
         y="76.2"
         width="38.1"
         height="47.6" />
      <rect
         id="rect170"
         class="st16"
         x="50.31"
         y="95.2"
         width="42.9"
         height="19" />
    </g>
    <g
       id="text170"
       class="st6">
      <g
         id="text316"
         class="st6">
        <g
           class="st6"
           id="g43">
          <text
             class="st7"
             transform="translate(60.11 108.3)"
             id="text43"><tspan
               x="0"
               y="0"
               id="tspan43">bam</tspan></text>
        </g>
      </g>
    </g>
  </g>
  <g
     id="g193">
    <g
       id="g192">
      <rect
         id="rect189"
         class="st14"
         x="509.19"
         y="110.25"
         width="38.1"
         height="47.6" />
      <rect
         id="rect190"
         class="st15"
         x="506.79"
         y="129.35"
         width="42.9"
         height="19" />
      <rect
         id="rect191"
         class="st14"
         x="511.59"
         y="112.65"
         width="38.1"
         height="47.6" />
      <rect
         id="rect192"
         class="st16"
         x="509.19"
         y="131.75"
         width="42.9"
         height="19" />
    </g>
    <g
       id="g317"
       class="st6">
      <g
         id="text317"
         class="st6">
        <g
           class="st6"
           id="g44">
          <text
             class="st7"
             transform="translate(524.09 144.75)"
             id="text44"><tspan
               x="0"
               y="0"
               id="tspan44">pdf</tspan></text>
        </g>
      </g>
    </g>
  </g>
  <g
     id="g148">
    <g
       id="g147">
      <rect
         id="rect144"
         class="st14"
         x="509.19"
         y="38.34"
         width="38.1"
         height="47.6" />
      <rect
         id="rect145"
         class="st15"
         x="506.79"
         y="57.34"
         width="42.9"
         height="19" />
      <rect
         id="rect146"
         class="st14"
         x="511.59"
         y="40.74"
         width="38.1"
         height="47.6" />
      <rect
         id="rect147"
         class="st16"
         x="509.19"
         y="59.74"
         width="42.9"
         height="19" />
    </g>
    <g
       id="text147"
       class="st6">
      <g
         id="text319"
         class="st6">
        <g
           class="st6"
           id="g45">
          <text
             class="st7"
             transform="translate(524.09 72.84)"
             id="text45"><tspan
               x="0"
               y="0"
               id="tspan45">vcf</tspan></text>
        </g>
      </g>
    </g>
  </g>
  <path
     id="rect172"
     class="st17"
     d="M170.5,169h0c4.1,0,7.5-3.4,7.5-7.5h0c0-4.1-3.4-7.5-7.5-7.5h0c-4.1,0-7.5,3.4-7.5,7.5h0c0,4.1,3.4,7.5,7.5,7.5Z" />
  <path
     id="rect187"
     class="st17"
     d="M170.5,127h0c4.1,0,7.5-3.4,7.5-7.5h0c0-4.1-3.4-7.5-7.5-7.5h0c-4.1,0-7.5,3.4-7.5,7.5h0c0,4.1,3.4,7.5,7.5,7.5Z" />
  <path
     id="rect185"
     class="st17"
     d="M170.5,44.8h0c4.1,0,7.5-3.4,7.5-7.5h0c0-4.1-3.4-7.5-7.5-7.5h0c-4.1,0-7.5,3.4-7.5,7.5h0c0,4.1,3.4,7.5,7.5,7.5Z" />
</svg>
