<?xml version="1.0" encoding="UTF-8" standalone="no"?>
<svg
   id="Layer_1"
   version="1.1"
   viewBox="0 0 600 250"
   sodipodi:docname="SVtorm0.svg"
   inkscape:version="1.4 (e7c3feb1, 2024-10-09)"
   xmlns:inkscape="http://www.inkscape.org/namespaces/inkscape"
   xmlns:sodipodi="http://sodipodi.sourceforge.net/DTD/sodipodi-0.dtd"
   xmlns="http://www.w3.org/2000/svg"
   xmlns:svg="http://www.w3.org/2000/svg">
  <sodipodi:namedview
     id="namedview56"
     pagecolor="#ffffff"
     bordercolor="#cccccc"
     borderopacity="1"
     inkscape:showpageshadow="0"
     inkscape:pageopacity="1"
     inkscape:pagecheckerboard="0"
     inkscape:deskcolor="#d1d1d1"
     inkscape:zoom="3.79"
     inkscape:cx="290.23747"
     inkscape:cy="127.17678"
     inkscape:window-width="3184"
     inkscape:window-height="1283"
     inkscape:window-x="1196"
     inkscape:window-y="25"
     inkscape:window-maximized="0"
     inkscape:current-layer="Layer_1" />
  <path
     style="fill:#ffffff;stroke:#ffffff"
     d="M 443.79947,166.75462 443.53562,73.878628"
     id="path3" />
  <path
     style="fill:none;stroke:#ffffff;stroke-width:1.20375"
     d="m 171.83136,166.31182 362.35354,-0.006"
     id="path1" />
  <path
     style="fill:none;stroke:#ffffff;stroke-opacity:1"
     d="m 51.605995,166.59529 37.044969,0.21413 0.856531,-21.41328 81.798715,0.21414 0.6424,21.41327"
     id="path56"
     sodipodi:nodetypes="ccccc" />
  <path
     style="fill:none;stroke:#ffffff;stroke-opacity:1"
     d="m 51.29516,167.06 37.687365,-0.42827 -0.214136,20.12847 82.441121,-0.42825 0.42827,-19.48609"
     id="path56-9-0-1"
     sodipodi:nodetypes="ccccc"
     inkscape:label="path59" />
  <path
     style="fill:none;stroke:#ffffff;stroke-opacity:1"
     d="m 171.75984,166.60813 -0.32807,61.72924 -82.113059,-0.059 -0.31433,-61.28316 -59.545463,0.0389"
     id="path56-9-0"
     sodipodi:nodetypes="ccccc"
     inkscape:label="path58" />
  <path
     style="fill:none;stroke:#ffffff;stroke-opacity:1"
     d="m 171.6785,166.59795 -0.42826,-62.31263 -82.012855,-0.21414 -0.100201,63.31464 -59.901197,-0.4628"
     id="path56-9"
     sodipodi:nodetypes="ccccc"
     inkscape:label="path57" />
  <!-- Generator: Adobe Illustrator 29.2.1, SVG Export Plug-In . SVG Version: 2.1.0 Build 116)  -->
  <defs
     id="defs1">
    <style
       id="style1">
      .st0 {
        font-family: MavenPro-Regular, 'Maven Pro';
      }

      .st0, .st1, .st2, .st3, .st4, .st5 {
        isolation: isolate;
      }

      .st0, .st4, .st5 {
        font-size: 12px;
      }

      .st6 {
        fill: #1f1d1d;
      }

      .st6, .st7, .st8 {
        stroke: #000;
      }

      .st9, .st3 {
        fill: #24b064;
      }

      .st1, .st3 {
        font-family: MavenPro-Bold, 'Maven Pro';
        font-size: 50px;
        font-weight: 700;
      }

      .st10, .st11, .st12, .st13, .st14 {
        stroke-miterlimit: 10;
      }

      .st10, .st12, .st13, .st14 {
        fill: none;
        stroke: #24b064;
        stroke-width: 6px;
      }

      .st11 {
        stroke: #1f1d1d;
      }

      .st11, .st7, .st4 {
        fill: #fff;
      }

      .st12 {
        stroke-dasharray: 5.16 5.16;
      }

      .st8 {
        fill: #39383a;
      }

      .st4 {
        font-family: Helvetica, Helvetica;
      }

      .st5 {
        font-family: MavenPro-SemiBold, 'Maven Pro';
        font-weight: 600;
      }

      .st13 {
        stroke-dasharray: 5.22 5.22;
      }

      .st14 {
        stroke-dasharray: 5.01 5.01;
      }
    </style>
  </defs>
  <g
     class="st2"
     id="g2">
    <text
       class="st3"
       transform="translate(10.5 48.85)"
       id="text1"
       style="fill:#6600ff"><tspan
         x="0"
         y="0"
         id="tspan1"
         style="fill:#6600ff">SV</tspan></text>
    <text
       class="st1"
       transform="translate(74.8 48.85)"
       id="text2"><tspan
         x="0"
         y="0"
         id="tspan2">torm</tspan></text>
  </g>
  <g
     id="g3"
     style="fill:none;stroke:#6600ff"
     transform="matrix(1,0,0,0.99577499,-6.0459578,0.70371873)">
    <polyline
       class="st10"
       points="449.83 164.06 449.83 166.56 449.83 164.06"
       id="polyline2"
       style="fill:none;stroke:#6600ff" />
    <line
       class="st13"
       x1="449.82999"
       y1="158.84"
       x2="449.82999"
       y2="109.22"
       id="line2"
       style="fill:none;stroke:#6600ff" />
    <polyline
       class="st10"
       points="449.83 106.61 449.83 104.11 449.83 106.61"
       id="polyline3"
       style="fill:none;stroke:#6600ff" />
    <line
       class="st13"
       x1="449.82999"
       y1="111.83"
       x2="449.82999"
       y2="161.45"
       id="line3"
       style="fill:none;stroke:#6600ff" />
  </g>
  <path
     class="st10"
     d="M497.44,166.56H171.63h325.81Z"
     id="path8"
     style="fill:none;stroke:#6600ff" />
  <g
     class="st2"
     id="g11">
    <text
       class="st5"
       transform="translate(187.38 131.12)"
       id="text10"><tspan
         x="0"
         y="0"
         id="tspan10">Survivor</tspan></text>
    <text
       class="st0"
       transform="translate(194.8 145.52)"
       id="text11"><tspan
         x="0"
         y="0"
         id="tspan11">Merge</tspan></text>
  </g>
  <g
     class="st2"
     id="g13"
     transform="translate(41.229552,-63.424)">
    <text
       class="st5"
       transform="translate(241.53,196.74)"
       id="text12"><tspan
         x="0"
         y="0"
         id="tspan12">ReCall</tspan></text>
    <text
       class="st0"
       transform="translate(242.65,211.14)"
       id="text13"><tspan
         x="0"
         y="0"
         id="tspan13">Gridss</tspan></text>
  </g>
  <g
     class="st2"
     id="g13-7"
     transform="translate(-6.728148,-0.760348)"
     style="isolation:isolate">
    <text
       class="st5"
       transform="translate(241.53,196.74)"
       id="text12-1"
       style="font-weight:600;font-size:12px;font-family:MavenPro-SemiBold, 'Maven Pro';isolation:isolate"><tspan
         x="0"
         y="0"
         id="tspan12-3">GATK4</tspan></text>
    <text
       class="st0"
       id="text13-8"
       style="font-size:12px;font-family:MavenPro-Regular, 'Maven Pro';isolation:isolate"
       x="225.23575"
       y="209.82074"><tspan
         x="225.23575"
         y="209.82074"
         id="tspan13-4">bed2intervals</tspan></text>
  </g>
  <g
     class="st2"
     id="g15"
     transform="translate(38.28496,64.907652)">
    <text
       class="st5"
       transform="translate(282.61,131.12)"
       id="text14"><tspan
         x="0"
         y="0"
         id="tspan14">Survivor</tspan></text>
    <text
       class="st0"
       transform="translate(284.92,145.52)"
       id="text15"><tspan
         x="0"
         y="0"
         id="tspan15">Filtering</tspan></text>
  </g>
  <g
     class="st2"
     id="g16">
    <text
       class="st5"
       transform="translate(116.19,86.88)"
       id="text16"><tspan
         x="0"
         y="0"
         id="tspan16">Delly</tspan></text>
  </g>
  <g
     class="st2"
     id="g17">
    <text
       class="st5"
       transform="translate(112.78,128.35)"
       id="text17"><tspan
         x="0"
         y="0"
         id="tspan17">Gridss</tspan></text>
  </g>
  <g
     class="st2"
     id="g18">
    <text
       class="st5"
       transform="translate(113.1,211.28)"
       id="text18"><tspan
         x="0"
         y="0"
         id="tspan18">Svaba</tspan></text>
  </g>
  <g
     class="st2"
     id="g19">
    <text
       class="st5"
       transform="translate(112.63,169.81)"
       id="text19"><tspan
         x="0"
         y="0"
         id="tspan19">Manta</tspan></text>
  </g>
  <path
     class="st10"
     d="m 89.16,203.91 v 24.36 c 0,0.25 0.67,0.46 1.49,0.46 h 79.48 c 0.83,0 1.5,-0.21 1.5,-0.46 v -24.36"
     id="path19"
     style="stroke:#6600ff" />
  <path
     class="st10"
     d="m 89.229297,147.73378 v -43.29889 c 0,-0.44925 0.668874,-0.81293 1.487496,-0.81293 h 79.346427 c 0.82861,0 1.49748,0.36368 1.49748,0.81293 v 43.28819"
     id="path21"
     style="stroke:#6600ff" />
  <path
     class="st10"
     d="m 89.16,186.73 v -40.48 c 0,-0.42 0.67,-0.76 1.49,-0.76 h 79.48 c 0.83,0 1.5,0.34 1.5,0.76 v 40.47"
     id="path23"
     sodipodi:nodetypes="cssssc"
     style="stroke:#6600ff" />
  <path
     class="st10"
     d="m 89.16,211.41 v -24.36 c 0,-0.25 0.67,-0.46 1.49,-0.46 h 79.48 c 0.83,0 1.5,0.21 1.5,0.46 v 24.36"
     id="path25"
     style="stroke:#6600ff" />
  <g
     id="g28"
     style="stroke:#6600ff;fill:#6600ff">
    <path
       class="st10"
       d="M534.28,166.56h-36.83,36.83Z"
       id="path27"
       style="stroke:#6600ff;fill:#6600ff" />
    <polygon
       class="st9"
       points="522.69 156.39 532.87 166.56 522.69 176.74 531.32 176.74 541.5 166.56 531.32 156.39 522.69 156.39"
       id="polygon27"
       style="stroke:#6600ff;fill:#6600ff" />
  </g>
  <g
     class="st2"
     id="g34"
     transform="translate(39.229552,-49.036005)">
    <text
       class="st5"
       id="text34"
       x="318.67001"
       y="196.74001"><tspan
         x="318.67001"
         y="196.74001"
         id="tspan34">iAnnotateSV</tspan></text>
  </g>
  <g
     id="g49">
    <g
       id="g47">
      <rect
         class="st7"
         x="552.13"
         y="141.56"
         width="38.1"
         height="47.62"
         id="rect44" />
      <rect
         class="st8"
         x="549.75"
         y="160.61"
         width="42.86"
         height="19.05"
         id="rect45" />
      <rect
         class="st7"
         x="554.51"
         y="143.94"
         width="38.1"
         height="47.62"
         id="rect46" />
      <rect
         class="st6"
         x="552.13"
         y="162.99"
         width="42.86"
         height="19.05"
         id="rect47" />
    </g>
    <g
       class="st2"
       id="g48">
      <text
         class="st4"
         transform="translate(567.02 176.06)"
         id="text47"><tspan
           x="0"
           y="0"
           id="tspan47">tsv</tspan></text>
    </g>
  </g>
  <g
     class="st2"
     id="g50"
     transform="translate(40.280045,50.451652)">
    <text
       class="st5"
       transform="translate(380.62,145.54)"
       id="text49"><tspan
         x="0"
         y="0"
         id="tspan49">DrawSV</tspan></text>
  </g>
  <g
     class="st2"
     id="g52"
     transform="translate(-6,0.064)">
    <g
       id="g9"
       transform="translate(0.79155672,3.5145031)">
      <text
         class="st5"
         id="text51"
         x="468.20761"
         y="142.0255"><tspan
           x="468.20761"
           y="142.0255"
           id="tspan51">Check-Up</tspan></text>
    </g>
  </g>
  <polygon
     class="st9"
     points="439.66,80.47 449.83,70.29 460.01,80.47 460.01,71.83 449.83,61.66 439.66,71.83 "
     id="polygon53"
     style="fill:#6600ff;stroke:#6600ff"
     transform="translate(-6.0509645,35.604222)" />
  <circle
     id="circle57"
     cx="0.0099999998"
     cy="-0.63"
     r="3.0999999">
    <animateMotion
       accumulate="none"
       additive="replace"
       begin="0s"
       calcMode="paced"
       dur="3s"
       fill="remove"
       keyPoints="1;0"
       keyTimes="0;1"
       repeatCount="indefinite"
       restart="always">
      <mpath
         href="#path56-9" />
    </animateMotion>
  </circle>
  <circle
     id="circle58"
     cx="0.0099999998"
     cy="-0.63"
     r="3.0999999">
    <animateMotion
       accumulate="none"
       additive="replace"
       begin="0s"
       calcMode="paced"
       dur="3s"
       fill="remove"
       keyPoints="1;0"
       keyTimes="0;1"
       repeatCount="indefinite"
       restart="always">
      <mpath
         href="#path56-9-0" />
    </animateMotion>
  </circle>
  <path
     class="st10"
     d="m 89.16,166.56 h -45.8 45.8"
     id="path2"
     sodipodi:nodetypes="ccc"
     style="stroke-width:6.4;stroke-dasharray:none;fill:none;stroke:#6600ff" />
  <g
     id="g39">
    <g
       id="g37">
      <rect
         class="st7"
         x="8.1199999"
         y="141.25999"
         width="38.099998"
         height="47.619999"
         id="rect34" />
      <rect
         class="st8"
         x="5.7399998"
         y="160.31"
         width="42.860001"
         height="19.049999"
         id="rect35" />
      <rect
         class="st7"
         x="10.5"
         y="143.64"
         width="38.099998"
         height="47.619999"
         id="rect36" />
      <rect
         class="st6"
         x="8.1199999"
         y="162.69"
         width="42.860001"
         height="19.049999"
         id="rect37" />
    </g>
    <g
       class="st2"
       id="g38">
      <text
         class="st4"
         transform="translate(18.01,175.76)"
         id="text37"><tspan
           x="0"
           y="0"
           id="tspan37">bam</tspan></text>
    </g>
  </g>
  <circle
     id="circle56"
     cx=".01"
     cy="-.63"
     r="3.44">
    <animateMotion
       accumulate="none"
       additive="replace"
       begin="0s"
       calcMode="paced"
       dur="3s"
       fill="remove"
       keyPoints="0;1"
       keyTimes="0;1"
       repeatCount="indefinite"
       restart="always">
      <mpath
         href="#path56" />
    </animateMotion>
  </circle>
  <circle
     id="circle59"
     cx=".01"
     cy="-.63"
     r="3.44">
    <animateMotion
       accumulate="none"
       additive="replace"
       begin="0s"
       calcMode="paced"
       dur="3s"
       fill="remove"
       keyPoints="0;1"
       keyTimes="0;1"
       repeatCount="indefinite"
       restart="always">
      <mpath
         href="#path56-9-0-1" />
    </animateMotion>
  </circle>
  <circle
     id="circle55"
     cx=".01"
     cy="-.63"
     r="3.44">
    <animateMotion
       accumulate="none"
       additive="replace"
       begin="3s"
       calcMode="paced"
       dur="3s"
       fill="remove"
       keyPoints="0;1"
       keyTimes="0;1"
       repeatCount="indefinite"
       restart="always">
      <mpath
         href="#path1" />
    </animateMotion>
  </circle>
  <circle
     id="circle3"
     cx=".01"
     cy="-.63"
     r="3.44">
    <animateMotion
       accumulate="none"
       additive="replace"
       begin="5.2s"
       calcMode="paced"
       dur="3s"
       fill="remove"
       keyPoints="0;1;1;1"
       keyTimes="0;0.3;0.5;1"
       repeatCount="indefinite"
       restart="always">
      <mpath
         href="#path3" />
    </animateMotion>
  </circle>
  <path
     class="st11"
     d="m 130.39,95.99 v 0 c 4.14,0 7.5,3.36 7.5,7.5 v 0 c 0,4.14 -3.36,7.5 -7.5,7.5 v 0 c -4.14,0 -7.5,-3.36 -7.5,-7.5 v 0 c 0,-4.14 3.36,-7.5 7.5,-7.5 z"
     id="path22" />
  <path
     class="st11"
     d="m 130.39,137.99 v 0 c 4.14,0 7.5,3.36 7.5,7.5 v 0 c 0,4.14 -3.36,7.5 -7.5,7.5 v 0 c -4.14,0 -7.5,-3.36 -7.5,-7.5 v 0 c 0,-4.14 3.36,-7.5 7.5,-7.5 z"
     id="path24" />
  <path
     class="st11"
     d="m 130.39,179.09 v 0 c 4.14,0 7.5,3.36 7.5,7.5 v 0 c 0,4.14 -3.36,7.5 -7.5,7.5 v 0 c -4.14,0 -7.5,-3.36 -7.5,-7.5 v 0 c 0,-4.14 3.36,-7.5 7.5,-7.5 z"
     id="path26" />
  <path
     class="st11"
     d="m 130.39,221.23 v 0 c 4.14,0 7.5,3.36 7.5,7.5 v 0 c 0,4.14 -3.36,7.5 -7.5,7.5 v 0 c -4.14,0 -7.5,-3.36 -7.5,-7.5 v 0 c 0,-4.14 3.36,-7.5 7.5,-7.5 z"
     id="path20" />
  <path
     class="st11"
     d="M211.75,159.06h0c4.14,0,7.5,3.36,7.5,7.5h0c0,4.14-3.36,7.5-7.5,7.5h0c-4.14,0-7.5-3.36-7.5-7.5h0c0-4.14,3.36-7.5,7.5-7.5Z"
     id="path33" />
  <path
     class="st11"
     d="m 255.55762,159.06 v 0 c 4.14,0 7.5,3.36 7.5,7.5 v 0 c 0,4.14 -3.36,7.5 -7.5,7.5 v 0 c -4.14,0 -7.5,-3.36 -7.5,-7.5 v 0 c 0,-4.14 3.36,-7.5 7.5,-7.5 z"
     id="path11" />
  <path
     class="st11"
     d="m 300.62156,159.06 v 0 c 4.14,0 7.5,3.36 7.5,7.5 v 0 c 0,4.14 -3.36,7.5 -7.5,7.5 v 0 c -4.14,0 -7.5,-3.36 -7.5,-7.5 v 0 c 0,-4.14 3.36,-7.5 7.5,-7.5 z"
     id="path9" />
  <path
     class="st11"
     d="m 345.25495,159.06 v 0 c 4.14,0 7.5,3.36 7.5,7.5 v 0 c 0,4.14 -3.36,7.5 -7.5,7.5 v 0 c -4.14,0 -7.5,-3.36 -7.5,-7.5 v 0 c 0,-4.14 3.36,-7.5 7.5,-7.5 z"
     id="path10" />
  <path
     class="st11"
     d="m 393.68956,159.46 v 0 c 4.14,0 7.5,3.36 7.5,7.5 v 0 c 0,4.14 -3.36,7.5 -7.5,7.5 v 0 c -4.14,0 -7.5,-3.36 -7.5,-7.5 v 0 c 0,-4.14 3.36,-7.5 7.5,-7.5 z"
     id="path34" />
  <path
     class="st11"
     d="m 443.78404,159.06 v 0 c 4.14,0 7.5,3.36 7.5,7.5 v 0 c 0,4.14 -3.36,7.5 -7.5,7.5 v 0 c -4.14,0 -7.5,-3.36 -7.5,-7.5 v 0 c 0,-4.14 3.36,-7.5 7.5,-7.5 z"
     id="path49" />
  <path
     class="st11"
     d="m 490.74318,159.06 v 0 c 4.14,0 7.5,3.36 7.5,7.5 v 0 c 0,4.14 -3.36,7.5 -7.5,7.5 v 0 c -4.14,0 -7.5,-3.36 -7.5,-7.5 v 0 c 0,-4.14 3.36,-7.5 7.5,-7.5 z"
     id="path28" />
  <g
     id="g33"
     transform="translate(68.934037,39.451187)">
    <g
       id="g31">
      <rect
         class="st7"
         x="354.60999"
         y="4.3600001"
         width="38.099998"
         height="47.619999"
         id="rect28" />
      <rect
         class="st8"
         x="352.23001"
         y="23.4"
         width="42.860001"
         height="19.049999"
         id="rect29" />
      <rect
         class="st7"
         x="356.98999"
         y="6.7399998"
         width="38.099998"
         height="47.619999"
         id="rect30" />
      <rect
         class="st6"
         x="354.60999"
         y="25.780001"
         width="42.860001"
         height="19.049999"
         id="rect31" />
    </g>
    <g
       class="st2"
       id="g32">
      <text
         class="st4"
         transform="translate(369.5,38.86)"
         id="text31"><tspan
           x="0"
           y="0"
           id="tspan31">pdf</tspan></text>
    </g>
  </g>
</svg>
