<?xml version="1.0" encoding="UTF-8"?>
<svg id="svg2" xmlns="http://www.w3.org/2000/svg" xmlns:xlink="http://www.w3.org/1999/xlink" version="1.1" viewBox="0 0 1456.8 522.4">
  <!-- Generator: Adobe Illustrator 29.6.0, SVG Export Plug-In . SVG Version: 2.1.1 Build 207)  -->
  <defs>
    <style>
      .st0 {
        fill: url(#linear-gradient2);
      }

      .st1 {
        fill: url(#linear-gradient1);
      }

      .st2 {
        fill: url(#linear-gradient);
      }

      .st3, .st4, .st5 {
        isolation: isolate;
      }

      .st4 {
        font-size: 209.9px;
      }

      .st4, .st5 {
        font-family: MavenPro-Bold, 'Maven Pro';
        font-weight: 700;
      }

      .st6 {
        fill: #a6a6a6;
      }

      .st5 {
        fill: #4d4d4d;
        font-size: 204.4px;
      }
    </style>
    <linearGradient id="linear-gradient" x1="482.4" y1="-235.8" x2="578" y2="-331.4" gradientTransform="translate(-7.8 -26.7) scale(1 -1)" gradientUnits="userSpaceOnUse">
      <stop offset="0" stop-color="#224c4e"/>
      <stop offset=".5" stop-color="#429698"/>
      <stop offset="1" stop-color="#63d4d6"/>
    </linearGradient>
    <linearGradient id="linear-gradient1" x1="606.6" y1="-199.8" x2="717.7" y2="-311.3" gradientTransform="translate(-7.8 -26.7) scale(1 -1)" gradientUnits="userSpaceOnUse">
      <stop offset="0" stop-color="#89f6f0"/>
      <stop offset=".5" stop-color="#a5f3df"/>
      <stop offset="1" stop-color="#b3f0d6"/>
    </linearGradient>
    <linearGradient id="linear-gradient2" x1="389" y1="225.1" x2="451.2" y2="287.4" gradientUnits="userSpaceOnUse">
      <stop offset="0" stop-color="#224c4e"/>
      <stop offset=".2" stop-color="#429698"/>
      <stop offset=".4" stop-color="#63d4d6"/>
      <stop offset=".6" stop-color="#89f6f0"/>
      <stop offset=".8" stop-color="#a5f3df"/>
      <stop offset="1" stop-color="#b3f0d6"/>
    </linearGradient>
  </defs>
  <g class="st3">
    <g class="st3">
      <g class="st3">
        <g class="st3">
          <g class="st3">
            <text class="st4" transform="translate(52.3 325.3)"><tspan x="0" y="0">CTI</tspan></text>
          </g>
        </g>
      </g>
    </g>
  </g>
  <g id="g21">
    <g id="text23" class="st3">
      <g id="text25" class="st3">
        <g id="text28" class="st3">
          <g id="g16" class="st3">
            <g id="g15" class="st3">
              <path id="path15" class="st2" d="M524.9,326.1c-6.9,0-13.4,0-19-.9-5.6-.9-10.8-1.7-15.6-3s-9.5-3-13.8-5.2v-31.6c6.5,5.2,13.4,9.1,21.2,11.7,7.8,2.6,15.6,3.9,22.5,3.9s11.2-1.3,14.3-3.5c3.5-2.6,5.2-6.1,5.2-10.8s-1.7-6.5-4.8-9.1c-3-2.6-6.9-4.3-12.1-6.1-5.2-1.7-10.8-3.5-16.9-5.6-3.9-1.3-7.8-2.6-11.7-4.8-3.9-1.7-7.3-4.3-10.4-7.3-3-3-5.2-6.5-7.3-10.8-1.7-4.3-2.6-9.5-2.6-15.6s.9-10.8,3-16,5.2-9.9,9.5-13.8c4.3-3.9,9.9-7.3,16.4-9.5,6.5-2.6,14.7-3.5,23.3-3.5s10.4,0,14.7.9,8.2,1.7,12.5,3c3.9,1.3,7.8,3,12.1,5.2v32c-3-2.6-6.5-5.2-10.4-7.3s-7.8-4.3-12.1-5.6-8.6-2.2-13.4-2.6c-3.9,0-7.8,0-11.2,1.3-3.5.9-6.1,2.6-7.8,4.8s-3,4.8-3,8.2,1.3,6.9,3.5,9.1,5.6,3.9,9.5,5.6c3.9,1.3,8.6,3,13.8,4.8,5.6,1.7,10.8,3.5,15.6,5.6s8.6,4.3,12.5,7.3c3.5,3,6.5,6.5,8.2,11.2,1.7,4.3,3,9.5,3,15.6s-1.7,15.6-5.6,22.5c-3.9,6.9-9.5,12.1-16.4,16-7.3,3.9-16,5.6-26.8,5.6v-1.7Z"/>
            </g>
          </g>
        </g>
      </g>
    </g>
    <g id="text24" class="st3">
      <g id="text26" class="st3">
        <g id="text29" class="st3">
          <g id="g18" class="st3">
            <g id="g17" class="st3">
              <path id="path16" class="st1" d="M635.9,323.1l-51-136.6h38.5l38.5,115.8h-10.8l38.5-115.8h35l-53.6,136.2h-35.4l.4.4Z"/>
            </g>
          </g>
        </g>
      </g>
    </g>
    <g id="text2" class="st3">
      <g id="g34" class="st3">
        <g id="g27" class="st3">
          <g id="text27" class="st3">
            <g id="text30" class="st3">
              <g id="g19" class="st3">
                <g id="text18" class="st3">
                  <text class="st5" transform="translate(727.6 323.1)"><tspan x="0" y="0">t</tspan></text>
                </g>
              </g>
            </g>
          </g>
        </g>
        <g id="g28" class="st3">
          <g id="g31" class="st3">
            <g id="text31" class="st3">
              <g id="g20" class="st3">
                <g id="text19" class="st3">
                  <text class="st5" transform="translate(811.9 323.1)"><tspan x="0" y="0">o</tspan></text>
                </g>
              </g>
            </g>
          </g>
        </g>
        <g id="g29" class="st3">
          <g id="g32" class="st3">
            <g id="text32" class="st3">
              <g id="text16" class="st3">
                <g id="text20" class="st3">
                  <text class="st5" transform="translate(932.5 323.1)"><tspan x="0" y="0">r</tspan></text>
                </g>
              </g>
            </g>
          </g>
        </g>
        <g id="g30" class="st3">
          <g id="g33" class="st3">
            <g id="text33" class="st3">
              <g id="text17" class="st3">
                <g id="text21" class="st3">
                  <text class="st5" transform="translate(1020.2 323.1)"><tspan x="0" y="0">m</tspan></text>
                </g>
              </g>
            </g>
          </g>
        </g>
      </g>
    </g>
    <path id="path45" class="st6" d="M1241.5,279h-3.9l-12.5,44.1c1.3,0,3.5,0,3.9-.9l12.5-42.8h0v-.4Z"/>
    <path id="path46" class="st6" d="M1404.5,279c-1.7,0-3.9-.9-4.3.9l-12.5,42.8h3.9l13-44.1h0v.4Z"/>
    <path id="path47" class="st6" d="M1277,292.4v18.2c0,3.9,8.2,6.9,11.7,4.8v-3.9c-1.3.9-6.5-.9-6.5-2.6v-16.9h6.9v-3.9h-6.9v-5.2h-5.2v5.2h-3.5v3.9h3.5v.4Z"/>
    <path id="path48" class="st6" d="M1266.1,288.9c-5.6-1.7-16.4-1.3-16,6.9.4,8.2,12.5,7.8,13,12.5,0,5.6-9.9,3.9-13,1.7-.9,5.2,1.7,5.6,6.1,6.1,5.2,0,11.7-1.7,11.7-8.2s-12.1-8.2-13-12.1c-.9-5.6,7.8-3.9,11.2-2.6v-4.3Z"/>
    <path id="path49" class="st6" d="M1309.8,291.5c-4.3-4.3-11.7-4.3-17.3-2.2,0,1.3-.9,3.5,0,3.9,10.4-5.2,17.3,3.5,13.8,13-2.6,6.5-8.6,5.2-13.8,3.9v4.3c5.2,0,10.4,1.7,15.1-1.7,6.9-4.3,6.9-16.9,1.7-22l.4.9Z"/>
    <path id="path50" class="st6" d="M1340.5,288.9v26.8h5.2v-18.2c0-1.3,5.2-4.8,6.9-5.2,1.7,0,3.9.9,3.9,2.6v20.7h5.2v-17.7c0-1.7,5.6-5.2,7.3-5.6,1.7,0,3.9,1.7,3.9,3v20.3h5.2v-21.2c0-.9-1.7-3.9-2.2-3.9-3.9-3.9-12.1-1.7-13.8,3.5-1.3-.9-1.7-2.6-2.6-3.5-3.9-3.9-11.7-1.7-13.8,3v-3.9h-6.1l.9-.9Z"/>
    <polygon id="polygon50" class="st6" points="1331 288.9 1320.6 288.9 1325.8 299.3 1331 288.9"/>
    <polygon id="polygon51" class="st6" points="1331 315.7 1325.8 304.9 1320.6 315.7 1331 315.7"/>
    <path id="path51" class="st6" d="M1340.5,288.9h5.2v3.9c3-4.3,10.4-6.5,13.8-3,1.3,1.3,1.3,3,2.6,3.5,1.7-4.8,10.4-6.9,13.8-3.5,0,.9,2.2,3.9,2.2,3.9v21.2h-5.2v-20.3c0-1.3-2.6-3.5-3.9-3-2.2,0-7.3,3.9-7.3,5.6v17.7h-5.2v-20.7c0-1.7-2.6-2.6-3.9-2.6s-6.9,3.9-6.9,5.2v18.2h-5.2v-26.8h.9l-.9.9Z"/>
    <path id="path52" class="st6" d="M1266.1,288.9v4.3c-3.5-1.3-11.7-3-10.8,2.6,0,3.9,12.5,3.9,13,12.1,0,6.5-6.5,8.6-11.7,8.2-4.3,0-6.9-.9-6.1-6.1,3,2.2,13,4.3,13-1.7s-12.1-3.9-13-12.5,10.4-8.6,16-6.9h-.4Z"/>
    <path id="path53" class="st6" d="M1311.1,291.5c5.2,5.6,5.2,18.2-1.7,22-4.8,3.5-9.9,2.2-15.1,1.7v-4.3c5.6,1.7,11.7,2.6,13.8-3.9,3.9-9.9-3.9-19-13.8-13-1.3-.9-1.3-3,0-3.9,5.2-2.6,13-3,17.3,2.2l-.4-.9Z"/>
    <path id="path54" class="st6" d="M1277,292.4h-3.5v-3.9h3.5v-5.2h4.8v5.2h7.3v3.9h-6.9v16.9c0,1.7,5.2,3.5,6.9,2.6v3.9c-3.9,2.2-11.7-.9-11.7-4.8v-18.2h0l-.4-.4Z"/>
    <path id="path55" class="st6" d="M1404.5,279l-13,43.7h-3.9l12.5-42.4c.9-1.7,3-.9,4.3-.9h0v-.4Z"/>
    <path id="path56" class="st6" d="M1241.5,279l-12.5,42.8c-.9,1.7-2.6.9-3.9.9l12.5-43.7h3.9Z"/>
    <polygon id="polygon56" class="st6" points="1331 288.9 1325.8 299.3 1320.6 288.9 1331 288.9"/>
    <polygon id="polygon57" class="st6" points="1331 315.7 1320.6 315.7 1325.8 304.9 1331 315.7"/>
  </g>
  <g class="st3">
    <g class="st3">
      <g class="st3">
        <g class="st3">
          <g class="st3">
            <g class="st3">
              <path class="st0" d="M370.4,345.9l77-179.3h22.5l-77.2,179.3h-22.2Z"/>
            </g>
          </g>
        </g>
      </g>
    </g>
  </g>
</svg>