<?xml version="1.0" encoding="UTF-8"?>
<svg id="svg2" xmlns="http://www.w3.org/2000/svg" xmlns:xlink="http://www.w3.org/1999/xlink" version="1.1" viewBox="0 0 1456.8 522.4">
  <!-- Generator: Adobe Illustrator 29.6.0, SVG Export Plug-In . SVG Version: 2.1.1 Build 207)  -->
  <defs>
    <style>
      .st0 {
        fill: #63d4d6;
      }

      .st0, .st1, .st2, .st3, .st4, .st5, .st6, .st7 {
        isolation: isolate;
      }

      .st0, .st1, .st2, .st3, .st4, .st5, .st7 {
        font-family: MavenPro-Bold, 'Maven Pro';
        font-size: 209.9px;
        font-weight: 700;
      }

      .st1 {
        fill: #224c4e;
      }

      .st2 {
        fill: #89f6f0;
      }

      .st8 {
        fill: url(#linear-gradient);
      }

      .st3 {
        fill: #429698;
      }

      .st4 {
        fill: #a5f3df;
      }

      .st5 {
        fill: #fafafa;
      }

      .st9 {
        fill: #a6a6a6;
      }

      .st7 {
        fill: #b3f0d6;
      }
    </style>
    <linearGradient id="linear-gradient" x1="910.2" y1="-63.4" x2="1006.9" y2="-63.4" gradientTransform="translate(1425.2 192.8) rotate(-180)" gradientUnits="userSpaceOnUse">
      <stop offset="0" stop-color="#daf8eb"/>
      <stop offset=".5" stop-color="#429698"/>
      <stop offset=".7" stop-color="#3a8486"/>
      <stop offset=".9" stop-color="#367d7f"/>
      <stop offset="1" stop-color="#fafafa"/>
    </linearGradient>
  </defs>
  <polygon class="st8" points="368.6 345.8 346.4 345.8 423.4 166.6 445.6 166.6 368.6 345.8"/>
  <g class="st6">
    <g class="st6">
      <g class="st6">
        <g class="st6">
          <text class="st5" transform="translate(28.2 325.3)"><tspan x="0" y="0">CTI</tspan></text>
        </g>
      </g>
    </g>
  </g>
  <g class="st6">
    <g class="st6">
      <g class="st6">
        <g class="st6">
          <g class="st6">
            <text class="st1" transform="translate(439.3 325.3)"><tspan x="0" y="0">S</tspan></text>
          </g>
          <g class="st6">
            <text class="st3" transform="translate(560.4 325.3)"><tspan x="0" y="0">V</tspan></text>
          </g>
        </g>
      </g>
    </g>
  </g>
  <g class="st6">
    <g class="st6">
      <g class="st6">
        <g class="st6">
          <g class="st6">
            <text class="st0" transform="translate(709.2 325.3)"><tspan x="0" y="0">t</tspan></text>
          </g>
          <g class="st6">
            <text class="st2" transform="translate(795.9 325.3)"><tspan x="0" y="0">o</tspan></text>
          </g>
          <g class="st6">
            <text class="st4" transform="translate(919.7 325.3)"><tspan x="0" y="0">r</tspan></text>
          </g>
          <g class="st6">
            <text class="st7" transform="translate(1009.5 325.3)"><tspan x="0" y="0">m</tspan></text>
          </g>
        </g>
      </g>
    </g>
  </g>
  <path id="path45" class="st9" d="M1231.7,271.8h-4.9l-15.3,53.4c1.5,0,4,.5,4.9-1l15.3-51.9h0v-.5Z"/>
  <path id="path46" class="st9" d="M1428.6,271.8c-2,0-4.5-1-5.4,1l-15.3,51.9h4.9l15.8-53.4h0v.5Z"/>
  <path id="path47" class="st9" d="M1274.8,288.1v21.8c0,4.9,9.9,8.4,14.3,5.9v-4.5c-1.5,1-7.9-1-7.9-3v-20.3h8.4v-4.9h-8.4v-6.4h-6.4v6.4h-4v4.9h4Z"/>
  <path id="path48" class="st9" d="M1261.4,283.6c-6.9-2-19.8-1.5-19.3,8.4.5,9.9,15.3,9.4,15.8,15.3,0,6.9-11.9,4.5-15.8,2-1,6.4,2,6.9,7.4,7.4,6.4.5,14.3-2,14.3-9.9s-14.8-9.9-15.8-14.8c-1-6.9,9.4-4.5,13.4-3v-5.4h0Z"/>
  <path id="path49" class="st9" d="M1314.3,287.1c-5.4-5.4-14.3-5.4-20.8-2.5-.5,1.5-1,4,.5,4.9,12.4-6.4,20.8,4,16.8,15.8-3,7.9-10.4,6.4-16.8,4.9v5.4c6.4.5,12.4,2,18.3-2,8.4-5.4,8.4-20.3,2-26.7h0Z"/>
  <path id="path50" class="st9" d="M1351.4,283.6v32.6h6.4v-21.8c0-1.5,6.4-5.9,8.4-6.4,2,0,4.9,1,4.9,3v25.2h6.4v-21.3c0-2,6.9-6.4,8.9-6.9,2,0,4.9,2,4.9,3.5v24.7h6.4v-25.7c0-1-2-4.5-2.5-4.9-4.5-4.5-14.8-2-16.8,4-1.5-1-2-3-3-4-4.5-4.5-13.9-2-16.8,3.5v-4.9h-7.4v-.5Z"/>
  <polygon id="polygon50" class="st9" points="1340.1 283.6 1327.2 283.6 1333.6 296.5 1340.1 283.6"/>
  <polygon id="polygon51" class="st9" points="1340.1 316.3 1333.6 302.9 1327.2 316.3 1340.1 316.3"/>
  <path id="path51" class="st9" d="M1351.4,283.6h6.4v4.9c3.5-5.4,12.4-7.9,16.8-3.5,1.5,1.5,1.5,3.5,3,4,2-5.9,12.4-8.4,16.8-4,.5,1,2.5,4.5,2.5,4.9v25.7h-6.4v-24.7c0-1.5-3-4-4.9-3.5-2.5,0-8.9,4.9-8.9,6.9v21.3h-6.4v-25.2c0-2-3-3-4.9-3s-8.4,4.5-8.4,6.4v21.8h-6.4v-32.6h1v.5Z"/>
  <path id="path52" class="st9" d="M1261.4,283.6v5.4c-4-1.5-13.9-3.5-12.9,3,.5,4.5,15.3,4.5,15.8,14.8,0,7.9-7.9,10.4-14.3,9.9-5.4-.5-8.4-1-7.4-7.4,3.5,2.5,15.8,5.4,15.8-2s-14.8-4.9-15.8-15.3c-1-10.4,12.4-10.4,19.3-8.4h-.5Z"/>
  <path id="path53" class="st9" d="M1315.8,287.1c6.4,6.9,6.4,21.8-2,26.7-5.9,4-11.9,2.5-18.3,2v-5.4c6.9,2,13.9,3,16.8-4.9,4.5-11.9-4.5-22.8-16.8-15.8-1.5-1-1.5-3.5-.5-4.9,6.4-3,15.8-3.5,20.8,2.5h0Z"/>
  <path id="path54" class="st9" d="M1274.8,288.1h-4v-4.9h4v-6.4h5.9v6.4h8.9v4.9h-8.4v20.3c0,2,6.4,4,8.4,3v4.5c-4.5,2.5-14.3-1-14.3-5.9v-21.8h-.5Z"/>
  <path id="path55" class="st9" d="M1428.6,271.8l-15.8,52.9h-4.9l15.3-51.4c1-2,3.5-1,5.4-1h0v-.5Z"/>
  <path id="path56" class="st9" d="M1231.7,271.8l-15.3,51.9c-1,2-3,1-4.9,1l15.3-52.9h4.9Z"/>
  <polygon id="polygon56" class="st9" points="1340.1 283.6 1333.6 296.5 1327.2 283.6 1340.1 283.6"/>
  <polygon id="polygon57" class="st9" points="1340.1 316.3 1327.2 316.3 1333.6 302.9 1340.1 316.3"/>
</svg>